<?xml version="1.0" encoding="UTF-8" standalone="no"?>
<!-- Created with Inkscape (http://www.inkscape.org/) -->

<svg
   width="800"
   height="200"
   viewBox="0 0 211.66666 52.916667"
   version="1.1"
   id="svg1"
   xml:space="preserve"
   inkscape:version="1.3.1 (91b66b0783, 2023-11-16)"
   sodipodi:docname="banner.svg"
   inkscape:export-filename="..\docs\banner.png"
   inkscape:export-xdpi="96"
   inkscape:export-ydpi="96"
   xmlns:inkscape="http://www.inkscape.org/namespaces/inkscape"
   xmlns:sodipodi="http://sodipodi.sourceforge.net/DTD/sodipodi-0.dtd"
   xmlns="http://www.w3.org/2000/svg"
   xmlns:svg="http://www.w3.org/2000/svg"><sodipodi:namedview
     id="namedview1"
     pagecolor="#505050"
     bordercolor="#eeeeee"
     borderopacity="1"
     inkscape:showpageshadow="0"
     inkscape:pageopacity="0"
     inkscape:pagecheckerboard="0"
     inkscape:deskcolor="#505050"
     inkscape:document-units="px"
     showborder="true"
     inkscape:zoom="1"
     inkscape:cx="403"
     inkscape:cy="134.5"
     inkscape:window-width="1920"
     inkscape:window-height="1013"
     inkscape:window-x="-9"
     inkscape:window-y="-9"
     inkscape:window-maximized="1"
     inkscape:current-layer="layer1"
     inkscape:export-bgcolor="#ffffffff" /><defs
     id="defs1"><rect
       x="128.15097"
       y="32.782806"
       width="574.1958"
       height="134.11148"
       id="rect1" /></defs><g
     inkscape:label="Layer 1"
     inkscape:groupmode="layer"
     id="layer1"><g
       id="hair"
       transform="matrix(0.29753873,-0.07934517,0.07934517,0.29753873,208.80851,6.3616878)" /><g
       id="skin"
       transform="matrix(0.29753873,-0.07934517,0.07934517,0.29753873,208.80851,6.3616878)" /><g
       id="skin-shadow"
       transform="matrix(0.29753873,-0.07934517,0.07934517,0.29753873,208.80851,6.3616878)" /><g
       id="g13"
       transform="translate(2.8843722,0.16282191)"><text
         xml:space="preserve"
         style="font-style:normal;font-variant:normal;font-weight:normal;font-stretch:normal;font-size:13.7801px;font-family:'Julius Sans One';-inkscape-font-specification:'Julius Sans One';fill:#000000;stroke-width:0.369108"
         x="3.7557666"
         y="46.978188"
         id="text3"><tspan
           sodipodi:role="line"
           id="tspan3"
           style="font-style:normal;font-variant:normal;font-weight:normal;font-stretch:normal;font-size:13.7801px;font-family:'Noto Serif';-inkscape-font-specification:'Noto Serif';stroke-width:0.369108"
           x="3.7557666"
           y="46.978188">Set up game-winning headers!</tspan></text><text
         xml:space="preserve"
         style="font-style:normal;font-variant:normal;font-weight:normal;font-stretch:normal;font-size:31.4973px;font-family:'Julius Sans One';-inkscape-font-specification:'Julius Sans One';fill:#000000;stroke-width:0.369108"
         x="0.92418212"
         y="32.596359"
         id="text2"><tspan
           sodipodi:role="line"
           id="tspan2"
           style="stroke-width:0.369108"
           x="0.92418212"
           y="32.596359">chipshot</tspan></text><path
         style="fill:#000000;stroke:#000000;stroke-width:1.21134;stroke-linecap:round;stroke-dasharray:none;stroke-opacity:1"
         d="m 172.3093,22.391277 -20.65119,9.153808 v 0"
         id="path10" /><path
         style="fill:#000000;stroke:#000000;stroke-width:1.21134;stroke-linecap:round;stroke-dasharray:none;stroke-opacity:1"
         d="m 179.10794,26.172906 -11.99506,5.316912 v 0"
         id="path10-2" /><path
         style="fill:#000000;stroke:#000000;stroke-width:1.21134;stroke-linecap:round;stroke-dasharray:none;stroke-opacity:1"
         d="m 174.7869,14.412232 -15.51067,6.875225 v 0"
         id="path10-2-9" /><g
         id="g12"
         transform="matrix(1.3454548,0,0,1.3454548,-109.17515,-4.3904617)"><path
           fill="#ffffff"
           stroke="none"
           d="m 220.61245,22.972816 c -0.48601,-0.09792 -0.95505,-0.233275 -1.40412,-0.405425 -1.28202,-0.481351 -2.40359,-1.244516 -3.30689,-2.202399 0,0 0,0 -0.003,-6.13e-4 -1.56237,-1.646709 -2.47774,-3.869816 -2.45261,-6.223843 0.006,-0.558007 0.0626,-1.121374 0.17635,-1.685872 0.0304,-0.150934 0.0638,-0.30126 0.1027,-0.447356 l 0.004,-0.02113 c 0.0376,-0.140061 0.0753,-0.280109 0.11897,-0.418948 0.002,-0.01208 0.008,-0.02356 0.0103,-0.03564 0.0358,-0.115291 0.0746,-0.229983 0.11644,-0.34406 0.0127,-0.03199 0.0231,-0.06758 0.0358,-0.09959 0.0333,-0.08748 0.0661,-0.172019 0.10243,-0.258937 0.0558,-0.136399 0.11454,-0.272198 0.17934,-0.406774 0.0236,-0.05493 0.0509,-0.112269 0.0775,-0.166584 0.0369,-0.07422 0.0769,-0.147843 0.11684,-0.221489 0.0351,-0.065173 0.0709,-0.1333542 0.10957,-0.2009574 0.0357,-0.068261 0.0738,-0.1327766 0.11503,-0.1967098 0.0327,-0.053088 0.0654,-0.1061941 0.0981,-0.1592912 0.0157,-0.031372 0.0339,-0.059086 0.0557,-0.089307 0.072,-0.1079931 0.14404,-0.2159951 0.2185,-0.3203581 0.10106,-0.1429848 0.20755,-0.2817305 0.31706,-0.4198629 0.0502,-0.062169 0.0998,-0.1212493 0.15305,-0.1827734 0.0581,-0.069997 0.11555,-0.136919 0.17603,-0.2032588 0.0683,-0.074186 0.13367,-0.1489807 0.20504,-0.2225532 0.0199,-0.021148 0.0429,-0.04158 0.0629,-0.062714 0.0992,-0.1025172 0.20442,-0.20383 0.30843,-0.2990966 0.0859,-0.083217 0.17718,-0.1622001 0.26486,-0.2387701 0.008,-0.00781 0.0151,-0.01272 0.0259,-0.019854 0.0798,-0.068733 0.15902,-0.1344454 0.24064,-0.1965291 0.0381,-0.033147 0.0792,-0.065694 0.11971,-0.095242 0.0332,-0.024719 0.0629,-0.046994 0.0961,-0.071731 0.004,-0.00565 0.008,-0.00781 0.0115,-0.010245 0.0108,-0.00725 0.0218,-0.014452 0.0296,-0.02228 0.004,-0.00565 0.0108,-0.00725 0.0145,-0.00968 0.004,-0.00565 0.008,-0.00781 0.0145,-0.00968 0.0411,-0.032547 0.0816,-0.06205 0.12515,-0.091012 0.0441,-0.031943 0.0846,-0.061446 0.12755,-0.087377 0.007,-0.00522 0.0145,-0.00968 0.0211,-0.011413 0.0363,-0.024115 0.0695,-0.048834 0.10277,-0.07353 0.055,-0.03659 0.11509,-0.068439 0.17151,-0.1036847 0.002,-0.00113 0.005,-0.00315 0.008,-0.00517 -1.7e-4,2.171e-4 -3.7e-4,4e-4 -5.4e-4,6.171e-4 0.12731,-0.079331 0.25359,-0.1595883 0.38677,-0.2337716 0.0991,-0.055394 0.20126,-0.1102315 0.30581,-0.1614164 0.14323,-0.071625 0.28585,-0.1402684 0.43391,-0.2047049 1.20919,-0.5290973 2.54422,-0.7941149 3.92167,-0.7395974 0.46738,0.018886 0.93956,0.076329 1.41349,0.1718261 1.86254,0.3752902 3.47245,1.3027989 4.69052,2.5848413 1.18853,1.241545 2.00517,2.8165151 2.32279,4.5296721 0.20979,1.094601 0.21056,2.244448 -0.023,3.403629 -0.23296,1.156157 -0.67896,2.215992 -1.29266,3.141516 -0.45515,0.699884 -1.00802,1.323537 -1.63747,1.859512 -0.16386,0.142892 -0.33618,0.280946 -0.51633,0.411128 l -6.2e-4,0.003 c -0.17713,0.130794 -0.35909,0.254337 -0.54587,0.370621 -0.27805,0.179567 -0.56454,0.338588 -0.86368,0.482496 -0.0973,0.04636 -0.19822,0.09513 -0.29793,0.137863 l -0.003,-6.05e-4 c 0,0 0.003,6.05e-4 -6.2e-4,0.003 -0.23871,0.108968 -0.48766,0.206449 -0.73961,0.28761 -0.0846,0.0301 -0.16857,0.05713 -0.25558,0.0836 -0.10393,0.03248 -0.20421,0.06251 -0.30631,0.08593 -0.0701,0.02044 -0.13955,0.03784 -0.21205,0.05465 -0.10633,0.02884 -0.21145,0.05164 -0.31595,0.07142 -0.11842,0.02643 -0.23559,0.04677 -0.35519,0.0635 -0.0912,0.01613 -0.18182,0.02933 -0.27484,0.03887 -0.0743,0.0102 -0.15161,0.01971 -0.23195,0.02869 -0.10266,0.01068 -0.20475,0.01842 -0.30682,0.02613 -0.0731,0.0041 -0.14314,0.0088 -0.21562,0.01 -0.22528,0.01118 -0.44872,0.01324 -0.67578,0.002 -0.0658,-6.66e-4 -0.13106,-0.0044 -0.19926,-0.0088 -0.0996,-0.0043 -0.20171,-0.01233 -0.30011,-0.02277 -0.0435,-0.0024 -0.087,-0.005 -0.12681,-0.0099 -0.10748,-0.01223 -0.21496,-0.02446 -0.32424,-0.04335 -0.0465,-0.0031 -0.0893,-0.0086 -0.13463,-0.01774 -0.12798,-0.01958 -0.25537,-0.04211 -0.38518,-0.06826 z"
           id="path1-2"
           style="stroke-width:0.307937" /><path
           fill="#d0cfce"
           stroke="none"
           d="m 220.61245,22.972816 c -0.48601,-0.09792 -0.95505,-0.233275 -1.40412,-0.405425 -1.28202,-0.481351 -2.40359,-1.244516 -3.30689,-2.202399 0,0 0,0 -0.003,-6.13e-4 -1.56237,-1.646709 -2.47774,-3.869816 -2.45261,-6.223843 0.006,-0.558007 0.0626,-1.121374 0.17635,-1.685872 0.0304,-0.150934 0.0638,-0.30126 0.1027,-0.447356 l 0.004,-0.02113 c 0.0376,-0.140061 0.0753,-0.280109 0.11897,-0.418948 0.002,-0.01208 0.008,-0.02356 0.0103,-0.03564 0.0358,-0.115291 0.0746,-0.229983 0.11644,-0.34406 0.0127,-0.03199 0.0231,-0.06758 0.0358,-0.09959 0.0333,-0.08748 0.0661,-0.172019 0.10243,-0.258937 0.0558,-0.136399 0.11454,-0.272198 0.17934,-0.406774 0.0236,-0.05493 0.0509,-0.112269 0.0775,-0.166584 0.0369,-0.07422 0.0769,-0.147843 0.11684,-0.221489 0.0351,-0.065173 0.0709,-0.1333542 0.10957,-0.2009574 0.0357,-0.068261 0.0738,-0.1327766 0.11503,-0.1967098 0.0327,-0.053088 0.0654,-0.1061941 0.0981,-0.1592912 0.0157,-0.031372 0.0339,-0.059086 0.0557,-0.089307 0.072,-0.1079931 0.14404,-0.2159951 0.2185,-0.3203581 0.052,-0.071206 0.10408,-0.1423714 0.15551,-0.2105426 0.0521,-0.071206 0.10649,-0.1387457 0.16155,-0.2093203 0.0502,-0.062169 0.0998,-0.1212493 0.15305,-0.1827734 0.0581,-0.069997 0.11555,-0.136919 0.17603,-0.2032588 0.0683,-0.074186 0.13367,-0.1489807 0.20504,-0.2225532 0.0199,-0.021148 0.0429,-0.04158 0.0629,-0.062714 0.0992,-0.1025172 0.20442,-0.20383 0.30843,-0.2990966 0.0859,-0.083217 0.17718,-0.1622001 0.26486,-0.2387701 0.008,-0.00781 0.0151,-0.01272 0.0259,-0.019854 0.0798,-0.068733 0.15902,-0.1344454 0.24064,-0.1965291 0.004,-0.00565 0.0115,-0.010245 0.0188,-0.015146 0.0822,-0.065085 0.16747,-0.1295973 0.25272,-0.1940929 0.004,-0.00565 0.008,-0.00781 0.0145,-0.00968 0.0913,-0.063285 0.18015,-0.1301824 0.27385,-0.1898402 0.0943,-0.062681 0.18799,-0.1223208 0.28168,-0.1819786 -0.94907,1.0621315 -1.66115,2.3667733 -2.01474,3.8410213 -0.0291,0.113492 -0.0553,0.227598 -0.0784,0.342313 -0.41117,2.040636 -0.0928,4.061791 0.78161,5.786615 1.05747,2.094683 2.92782,3.756322 5.28866,4.495889 0.29819,0.09465 0.60608,0.17238 0.92003,0.235637 0.62487,0.125903 1.24501,0.181752 1.85557,0.175987 l 0.003,6.13e-4 c 1.65233,-0.01574 3.22439,-0.490577 4.57956,-1.323239 -0.25465,0.281663 -0.52861,0.550006 -0.81401,0.797199 -0.16688,0.14229 -0.3392,0.280334 -0.51633,0.411128 0,0 0.003,6.13e-4 -6.2e-4,0.003 -0.18015,0.130182 -0.35909,0.254337 -0.54587,0.370621 -0.37053,0.233179 -0.76156,0.443385 -1.16463,0.619756 -0.24172,0.108357 -0.48765,0.20644 -0.74021,0.290625 -0.0846,0.0301 -0.16857,0.05713 -0.25558,0.08361 -0.10393,0.03248 -0.20421,0.06251 -0.30631,0.08592 -0.0701,0.02044 -0.13956,0.03784 -0.21205,0.05465 -0.10633,0.02884 -0.21145,0.05164 -0.31595,0.07142 -0.11842,0.02643 -0.2356,0.04677 -0.35519,0.0635 -0.0912,0.01613 -0.18182,0.02933 -0.27484,0.03886 -0.0743,0.0102 -0.15161,0.01971 -0.23195,0.02869 -0.10266,0.01068 -0.20475,0.01842 -0.30683,0.02613 -0.0731,0.0041 -0.14313,0.0088 -0.21561,0.01 -0.22528,0.01118 -0.44872,0.01324 -0.67578,0.002 -0.0658,-6.67e-4 -0.13106,-0.0044 -0.19926,-0.0088 -0.0996,-0.0043 -0.20171,-0.01233 -0.30012,-0.02278 -0.0435,-0.0024 -0.087,-0.005 -0.1268,-0.0099 -0.10748,-0.01223 -0.21496,-0.02446 -0.32424,-0.04335 -0.0465,-0.0031 -0.0893,-0.0086 -0.13463,-0.01774 -0.128,-0.01948 -0.2554,-0.04201 -0.3852,-0.06817 z"
           id="path2"
           style="stroke-width:0.307937" /><g
           id="line-2"
           transform="matrix(0.29753873,-0.07934517,0.07934517,0.29753873,208.80851,6.3616878)"><path
             fill="none"
             stroke="#000000"
             stroke-linecap="round"
             stroke-linejoin="round"
             stroke-miterlimit="10"
             stroke-width="2"
             d="m 65,36 c 0,1.61 -0.13,3.19 -0.39,4.73 -0.71,4.39 -2.42,8.45 -4.89,11.94 0,0 0,0 0,0.01 C 55.48,58.71 48.99,63.05 41.48,64.48 39.7,64.82 37.87,65 36,65 35.5,65 35,64.99 34.51,64.96 h -0.07 c -0.47,-0.03 -0.94,-0.06 -1.41,-0.11 -0.04,0 -0.08,-0.01 -0.1201,-0.01 -0.39,-0.04 -0.78,-0.09 -1.17,-0.15 -0.11,-0.02 -0.23,-0.03 -0.34,-0.05 -0.3,-0.05 -0.59,-0.1 -0.89,-0.16 -0.47,-0.09 -0.94,-0.19 -1.41,-0.31 -0.19,-0.04 -0.39,-0.09 -0.58,-0.14 -0.26,-0.07 -0.52,-0.15 -0.78,-0.23 -0.23,-0.07 -0.47,-0.14 -0.71,-0.22 -0.2401,-0.0699 -0.47,-0.15 -0.7,-0.24 -0.19,-0.07 -0.38,-0.14 -0.57,-0.21 -0.11,-0.03 -0.21,-0.07 -0.32,-0.12 -0.39,-0.16 -0.78,-0.32 -1.16,-0.4901 -0.52,-0.23 -1.03,-0.48 -1.54,-0.74 -0.23,-0.12 -0.45,-0.24 -0.68,-0.37 -0.26,-0.14 -0.51,-0.28 -0.76,-0.43 -0.28,-0.17 -0.56,-0.33 -0.84,-0.51 -0.08,-0.05 -0.16,-0.11 -0.2401,-0.16 -0.39,-0.25 -0.78,-0.52 -1.15,-0.79 -0.32,-0.22 -0.63,-0.46 -0.93,-0.69 -0.03,-0.02 -0.05,-0.04 -0.08,-0.0699 -0.27,-0.21 -0.53,-0.42 -0.78,-0.64 -0.13,-0.1 -0.26,-0.21 -0.38,-0.32 -0.1,-0.09 -0.19,-0.17 -0.29,-0.26 -0.02,-0.01 -0.03,-0.02 -0.04,-0.03 -0.03,-0.03 -0.06,-0.06 -0.09,-0.08 -0.02,-0.01 -0.03,-0.03 -0.04,-0.04 -0.02,-0.01 -0.03,-0.02 -0.04,-0.04 -0.13,-0.11 -0.25,-0.22 -0.37,-0.34 -0.13,-0.12 -0.25,-0.23 -0.36,-0.35 -0.02,-0.02 -0.04,-0.04 -0.05,-0.06 -0.1,-0.1 -0.2,-0.19 -0.3,-0.28 -0.1517,-0.1517 -0.2917,-0.3225 -0.4401,-0.4795 -0.0066,-0.0068 -0.0134,-0.0137 -0.02,-0.0205 8e-4,4e-4 0.0015,9e-4 0.0023,0.0013 -0.3342,-0.3544 -0.6707,-0.7049 -0.9923,-1.0813 -0.24,-0.28 -0.48,-0.57 -0.71,-0.87 -0.3199,-0.41 -0.6299,-0.82 -0.93,-1.25 -2.46,-3.51 -4.16,-7.59 -4.87,-12.01 C 7.12,39.11 7,37.57 7,36 7,29.83 8.92,24.11 12.22,19.41 15.41,14.83 19.9,11.22 25.15,9.11 28.5,7.74 32.16,7 36,7 c 3.83,0 7.49,0.74 10.83,2.1 2.52,1 4.86,2.36 6.97,4.02 0.56,0.43 1.11,0.89 1.64,1.38 h 0.01 c 0.53,0.48 1.04,0.98 1.53,1.5 0.75,0.77 1.44,1.58 2.09,2.44 0.21,0.28 0.43,0.57 0.63,0.86 v 0.01 c 0,0 0,-0.01 0.01,0 0.5,0.69 0.97,1.42 1.39,2.17 0.15,0.25 0.29,0.5 0.4301,0.76 0.17,0.31 0.33,0.61 0.47,0.92 0.11,0.21 0.21,0.42 0.31,0.64 0.16,0.32 0.3,0.64 0.43,0.96 0.16,0.36 0.3,0.72 0.43,1.09 0.11,0.28 0.21,0.56 0.3,0.85 0.08,0.23 0.16,0.47 0.2401,0.72 0.1,0.32 0.19,0.64 0.28,0.96 0.06,0.23 0.12,0.45 0.17,0.68 0.1801,0.71 0.33,1.42 0.44,2.15 0.04,0.21 0.07,0.42 0.1,0.64 0.05,0.32 0.09,0.65 0.12,0.97 0.02,0.14 0.04,0.28 0.05,0.41 0.03,0.35 0.06,0.7 0.07,1.06 0.02,0.15 0.03,0.29 0.03,0.44 C 64.99,35.15 65,35.57 65,36 Z"
             id="path3-8" /><path
             fill="#000000"
             stroke="none"
             d="m 34.2366,28.0728 -6.1555,4.4722 c -1.0515,0.7639 -1.4914,2.118 -1.0898,3.3541 l 2.3512,7.2362 c 0.4016,1.2361 1.5535,2.0729 2.8532,2.0729 h 7.6086 c 1.2997,0 2.4515,-0.8369 2.8532,-2.0729 l 2.3512,-7.2362 C 45.4103,34.663 44.9704,33.3089 43.9189,32.545 l -6.1555,-4.4722 c -1.0515,-0.7639 -2.4753,-0.7639 -3.5268,0 z"
             id="path4-0" /><path
             fill="#000000"
             stroke="none"
             d="m 46.28,10.18 -8.41,4.12 c -0.59,0.28 -1.23,0.42 -1.87,0.41 -0.57,-0.0099 -1.14,-0.14 -1.68,-0.39 l -8.61,-4.1 C 25.29,10.02 25.07,9.55 25.15,9.11 28.5,7.74 32.16,7 36,7 c 3.83,0 7.49,0.74 10.83,2.1 0.08,0.43 -0.13,0.88 -0.55,1.08 z"
             id="path5-4" /><path
             fill="#000000"
             stroke="none"
             d="M 30.51,64.48 C 30.04,64.39 29.57,64.29 29.1,64.17 28.91,64.13 28.71,64.08 28.52,64.03 28.26,63.96 28,63.88 27.74,63.8 27.51,63.73 27.27,63.66 27.03,63.58 26.7899,63.5101 26.56,63.43 26.33,63.34 26.14,63.27 25.95,63.2 25.76,63.13 25.65,63.1 25.55,63.06 25.44,63.01 25.05,62.85 24.66,62.69 24.28,62.5199 23.758,62.2895 23.2467,62.0393 22.7414,61.7789 22.5115,61.661 22.286,61.5366 22.0597,61.4128 21.804,61.2721 21.5507,61.1279 21.2996,60.9796 21.0173,60.8137 20.7361,60.647 20.4599,60.4719 c -0.0818,-0.0522 -0.1609,-0.108 -0.2422,-0.161 -3.1296,-2.0298 -5.849,-4.6387 -7.9878,-7.691 0.19,-0.34 0.58,-0.55 1.01,-0.5 l 9.34,1.14 c 0.64,0.08 1.24,0.3 1.76,0.65 0.49,0.33 0.91,0.76 1.22,1.27 l 2.82,4.59 2.19,3.58 C 30.79,63.71 30.76,64.16 30.51,64.48 Z"
             id="path6-2" /><path
             fill="#000000"
             stroke="none"
             d="m 15.16,31.37 c -0.14,0.58 -0.41,1.13 -0.79,1.61 l -5.9,7.3 C 8.19,40.62 7.74,40.74 7.36,40.61 7.12,39.11 7,37.57 7,36 7,29.83 8.92,24.11 12.22,19.41 c 0.42,0.05 0.79,0.35 0.88,0.79 l 2.08,9.33 c 0.14,0.61 0.13,1.24 -0.02,1.84 z"
             id="path7-4" /><path
             fill="#000000"
             stroke="none"
             d="m 59.72,52.67 c 0,0 0,0 0,0.01 -4.24,6.03 -10.73,10.37 -18.24,11.8 -0.26,-0.32 -0.29,-0.78 -0.07,-1.15 l 4.99,-8.14 c 0.3199,-0.52 0.74,-0.95 1.24,-1.28 0.52,-0.34 1.11,-0.56 1.74,-0.64 l 9.31,-1.14 c 0.44,-0.05 0.84,0.18 1.03,0.54 z"
             id="path8-4" /><path
             fill="#000000"
             stroke="none"
             d="m 65,36 c 0,1.61 -0.13,3.19 -0.39,4.73 -0.36,0.08 -0.75,-0.04 -1,-0.35 l -5.25,-6.5 -0.73,-0.9 c -0.78,-0.96 -1.08,-2.23 -0.8,-3.45 l 1.06,-4.75 v -0.01 l 1.04,-4.69 c 0.08,-0.39 0.39,-0.6899 0.77,-0.77 0,-0.01 0,-0.01 0.01,0 0.5,0.69 0.97,1.42 1.39,2.17 0.15,0.25 0.29,0.5 0.4301,0.76 0.17,0.31 0.33,0.61 0.47,0.92 0.11,0.21 0.21,0.42 0.31,0.64 0.16,0.32 0.3,0.64 0.43,0.96 0.16,0.36 0.3,0.72 0.43,1.09 0.11,0.28 0.21,0.56 0.3,0.85 0.08,0.23 0.16,0.47 0.2401,0.72 0.1,0.32 0.19,0.64 0.28,0.96 0.06,0.23 0.12,0.45 0.17,0.68 0.1801,0.71 0.33,1.42 0.44,2.15 0.04,0.21 0.07,0.42 0.1,0.64 0.05,0.32 0.09,0.65 0.12,0.97 0.02,0.14 0.04,0.28 0.05,0.41 0.03,0.35 0.06,0.7 0.07,1.06 0.02,0.15 0.03,0.29 0.03,0.44 C 64.99,35.15 65,35.57 65,36 Z"
             id="path9-3" /><line
             x1="36"
             x2="36"
             y1="14.7122"
             y2="27.499901"
             fill="none"
             stroke="#000000"
             stroke-linecap="round"
             stroke-linejoin="round"
             stroke-miterlimit="10"
             stroke-width="2"
             id="line9-5" /><line
             x1="44.988899"
             x2="56.8125"
             y1="33.9902"
             y2="31.326599"
             fill="none"
             stroke="#000000"
             stroke-linecap="round"
             stroke-linejoin="round"
             stroke-miterlimit="10"
             stroke-width="2"
             id="line10-4" /><line
             x1="41.590599"
             x2="47.6376"
             y1="44.617199"
             y2="53.912601"
             fill="none"
             stroke="#000000"
             stroke-linecap="round"
             stroke-linejoin="round"
             stroke-miterlimit="10"
             stroke-width="2"
             id="line11-8" /><line
             x1="30.393999"
             x2="24.343399"
             y1="44.6059"
             y2="53.912601"
             fill="none"
             stroke="#000000"
             stroke-linecap="round"
             stroke-linejoin="round"
             stroke-miterlimit="10"
             stroke-width="2"
             id="line12-9" /><line
             x1="27.001301"
             x2="15.1636"
             y1="34.018799"
             y2="31.372801"
             fill="none"
             stroke="#000000"
             stroke-linecap="round"
             stroke-linejoin="round"
             stroke-miterlimit="10"
             stroke-width="2"
             id="line13-5" /></g></g></g></g></svg>
